<?xml version="1.0" ?><!DOCTYPE svg  PUBLIC '-//W3C//DTD SVG 1.1//EN'  'http://www.w3.org/Graphics/SVG/1.1/DTD/svg11.dtd'><svg height="174px" style="enable-background:new 0 0 174 174;" version="1.1" viewBox="0 0 174 174" width="174px" xml:space="preserve" xmlns="http://www.w3.org/2000/svg" xmlns:xlink="http://www.w3.org/1999/xlink"><style type="text/css">
<![CDATA[
	.st0{fill:#EF3E42;}
	.st1{fill:#54B948;}
	.st2{fill:#FFC425;}
	.st3{fill:#FFFFFF;}
	.st4{fill:none;}
]]>
</style><defs/><polygon class="st1" points="16.7,12.3 150.6,12.3 150.6,146.2 16.7,146.2 16.7,12.3 "/><polygon class="st3" points="94.4,67.6 74.3,38.9 103.3,38.9 131.6,79.2 103.3,119.6 74.3,119.6 94.4,90.9 35.8,90.9 35.8,67.6   94.4,67.6 "/><path d="M159.6,2.8c0.3,0,0.6,0.3,0.6,0.6v151.8c0,0.3-0.3,0.6-0.6,0.6H7.8c-0.3,0-0.6-0.3-0.6-0.6V3.3c0-0.3,0.3-0.6,0.6-0.6H159.6  L159.6,2.8z M159,3.9H8.4v150.6H159V3.9L159,3.9z"/><rect class="st4" height="174" id="_x3C_Slice_x3E__48_" width="174"/></svg>